<?xml version="1.0" encoding="utf-8"?>
<!-- Generator: Adobe Illustrator 15.1.0, SVG Export Plug-In . SVG Version: 6.00 Build 0)  -->
<!DOCTYPE svg PUBLIC "-//W3C//DTD SVG 1.1//EN" "http://www.w3.org/Graphics/SVG/1.1/DTD/svg11.dtd">
<svg version="1.1" id="Layer_1" xmlns="http://www.w3.org/2000/svg" xmlns:xlink="http://www.w3.org/1999/xlink" x="0px" y="0px"
	 width="320px" height="63.333px" viewBox="0 0 320 63.333" enable-background="new 0 0 320 63.333" xml:space="preserve">
<g>
	<path fill="#FFFFFF" d="M151.375,22.171c-0.613,4.097-0.941,8.269-0.984,12.462c0.582,0.122,1.133,0.322,1.65,0.58
		c5.277-4.07,11.037-7.079,17.102-8.923c0.057-0.355,0.139-0.703,0.248-1.038c-4.253-2.829-8.775-4.972-13.482-6.331
		C154.934,20.562,153.304,21.77,151.375,22.171z"/>
	<path fill="#FFFFFF" d="M154.131,9.89c1.573,1.192,2.617,3.039,2.729,5.137c5.192,1.478,10.177,3.816,14.84,6.933
		c1.176-0.922,2.652-1.477,4.263-1.477c2.653,0,4.957,1.498,6.117,3.693c0.46-0.013,0.921-0.025,1.383-0.025
		c1.079,0,2.163,0.043,3.243,0.115c-3.327-12.248-14.542-21.282-27.83-21.282c-0.797,0-1.584,0.041-2.366,0.105
		C155.623,5.302,154.831,7.574,154.131,9.89z"/>
	<path fill="#FFFFFF" d="M182.835,28.162c-0.101,0.915-0.378,1.776-0.799,2.547c1.827,1.926,3.562,4.014,5.214,6.225
		c0.3-1.662,0.465-3.371,0.465-5.12c0-1.171-0.078-2.324-0.215-3.459c-1.344-0.122-2.691-0.204-4.038-0.204
		C183.252,28.151,183.044,28.159,182.835,28.162z"/>
	<path fill="#FFFFFF" d="M143.426,13.152c0.934-2.715,3.504-4.669,6.536-4.669c0.138,0,0.272,0.013,0.41,0.021
		c0.481-1.578,1.004-3.137,1.569-4.671c-6.172,1.529-11.563,5.049-15.452,9.838C138.788,13.338,141.106,13.154,143.426,13.152z"/>
	<path fill="#FFFFFF" d="M179.16,33.527c-0.957,0.5-2.043,0.789-3.198,0.789c-2.778,0-5.166-1.642-6.267-4.003
		c-5.187,1.659-10.133,4.25-14.709,7.694c0.565,1.003,0.893,2.159,0.893,3.394c0,3.022-1.945,5.588-4.648,6.526
		c0.572,4.181,1.447,8.277,2.601,12.275c1.639,0.291,3.323,0.45,5.044,0.45c12.35,0,22.906-7.807,27.01-18.739
		C183.809,38.861,181.561,36.061,179.16,33.527z"/>
	<path fill="#FFFFFF" d="M142.636,44.189c-0.378-0.853-0.591-1.797-0.591-2.789c0-2.91,1.798-5.396,4.341-6.416
		c0.027-4.43,0.364-8.837,1.001-13.168c-2.012-0.808-3.55-2.533-4.108-4.659c-3.318,0.014-6.628,0.418-9.873,1.166
		c-2.142,4.027-3.361,8.619-3.361,13.491c0,7.395,2.799,14.146,7.39,19.256C139.068,48.626,140.804,46.329,142.636,44.189z"/>
	<path fill="#FFFFFF" d="M145.29,47.254c-1.737,2.064-3.381,4.284-4.927,6.646c2.639,2.218,5.679,3.968,8.995,5.131
		c-0.928-3.582-1.646-7.233-2.141-10.945C146.525,47.904,145.878,47.624,145.29,47.254z"/>
</g>
<g>
	<path fill="#FFFFFF" d="M22.735,15.27v28.764l-3.466-0.007L5.91,20.822v23.212H2.76V15.27h3.478l13.395,23.265V15.27H22.735z"/>
	<path fill="#FFFFFF" d="M34.861,44.034V15.27h18.847v3.102H38.151v9.165h9.682v3.103h-9.682v10.293h16.638v3.102H34.861z"/>
	<path fill="#FFFFFF" d="M84.351,44.034h-3.76l-5.452-18.471l-5.263,18.471h-3.714L63.295,15.27l3.306-0.002l2.117,22.193
		l4.406-16.315l3.945-0.002l4.625,16.166l2.125-22.042l3.305,0.002L84.351,44.034z"/>
	<path fill="#FFFFFF" d="M117.579,36.279c0,2.507-0.995,4.567-2.984,6.181c-1.99,1.613-4.646,2.42-7.966,2.42
		c-3.76,0-6.643-1.034-8.648-3.102c-0.658-0.689-1.285-1.723-1.88-3.103v-2.396h3.102c0,1.441,0.682,2.711,2.044,3.807
		c1.363,1.098,3.157,1.646,5.382,1.646c2.381,0,4.261-0.501,5.64-1.504c1.378-1.003,2.068-2.334,2.068-3.995
		c0-1.128-0.313-2.037-0.94-2.727c-1.16-1.284-3.447-2.209-6.862-2.772c-3.416-0.564-5.836-1.465-7.261-2.703
		c-1.426-1.237-2.139-3.062-2.139-5.475c0-2.381,0.83-4.309,2.491-5.781c1.66-1.473,3.948-2.209,6.862-2.209
		c2.726,0,4.935,0.643,6.627,1.927c1.41,1.097,2.35,2.491,2.82,4.183l-2.679,1.881c0-1.285-0.635-2.413-1.904-3.385
		c-1.269-0.971-2.875-1.457-4.817-1.457c-1.974,0-3.518,0.432-4.629,1.293c-1.113,0.862-1.668,2.061-1.668,3.596
		c0,1.379,0.36,2.381,1.081,3.008c0.94,0.846,2.851,1.535,5.734,2.067c4.48,0.847,7.504,2.179,9.071,3.995
		C117.093,32.8,117.579,34.336,117.579,36.279z"/>
</g>
<g>
	<path fill="#FFFFFF" d="M201.963,44.034V15.27h9.306c4.01,0,7.238,1.457,9.682,4.371c2.287,2.726,3.431,6.094,3.431,10.104
		c0,4.042-1.081,7.363-3.243,9.964c-2.382,2.884-5.672,4.324-9.87,4.324H201.963z M221.093,29.746c0-3.164-0.769-5.781-2.303-7.849
		c-1.755-2.351-4.199-3.525-7.332-3.525h-6.204v22.561h6.204c3.165,0,5.608-1.144,7.332-3.432
		C220.324,35.464,221.093,32.879,221.093,29.746z"/>
	<path fill="#FFFFFF" d="M256.717,44.034l-3.494-0.011l-4.03-11.363h-10.05l-4.029,11.363l-3.494,0.011l10.198-28.764h4.7
		L256.717,44.034z M248.026,29.37l-3.857-10.884l-3.858,10.884H248.026z"/>
	<path fill="#FFFFFF" d="M286.42,36.279c0,2.507-0.994,4.567-2.984,6.181s-4.645,2.42-7.966,2.42c-3.76,0-6.643-1.034-8.648-3.102
		c-0.658-0.689-1.285-1.723-1.88-3.103v-2.396h3.102c0,1.441,0.682,2.711,2.044,3.807c1.363,1.098,3.157,1.646,5.382,1.646
		c2.381,0,4.261-0.501,5.64-1.504s2.068-2.334,2.068-3.995c0-1.128-0.313-2.037-0.939-2.727c-1.16-1.284-3.448-2.209-6.863-2.772
		c-3.416-0.564-5.836-1.465-7.261-2.703c-1.426-1.237-2.139-3.062-2.139-5.475c0-2.381,0.83-4.309,2.491-5.781
		c1.66-1.473,3.948-2.209,6.862-2.209c2.726,0,4.935,0.643,6.626,1.927c1.41,1.097,2.351,2.491,2.82,4.183l-2.679,1.881
		c0-1.285-0.635-2.413-1.904-3.385c-1.269-0.971-2.875-1.457-4.817-1.457c-1.974,0-3.518,0.432-4.629,1.293
		c-1.113,0.862-1.668,2.061-1.668,3.596c0,1.379,0.36,2.381,1.081,3.008c0.94,0.846,2.851,1.535,5.734,2.067
		c4.48,0.847,7.504,2.179,9.07,3.995C285.935,32.8,286.42,34.336,286.42,36.279z"/>
	<path fill="#FFFFFF" d="M317.018,44.034h-3.291V30.639h-14.053v13.395h-3.29V15.27h3.29v12.22h14.053V15.27h3.291V44.034z"/>
</g>
</svg>
